<?xml version="1.0" encoding="UTF-8" standalone="no"?>
<!DOCTYPE svg PUBLIC "-//W3C//DTD SVG 1.1//EN" "http://www.w3.org/Graphics/SVG/1.1/DTD/svg11.dtd">
<svg width="167" height="40" viewBox="0 0 167 40" version="1.1" xmlns="http://www.w3.org/2000/svg" xmlns:xlink="http://www.w3.org/1999/xlink" xml:space="preserve" xmlns:serif="http://www.serif.com/" style="fill-rule:evenodd;clip-rule:evenodd;stroke-linejoin:round;stroke-miterlimit:2;">
    <rect id="Artboard1" x="0" y="0" width="166.774" height="40" style="fill:none;"/>
    <clipPath id="_clip1">
        <rect id="Artboard11" serif:id="Artboard1" x="0" y="0" width="166.774" height="40"/>
    </clipPath>
    <g clip-path="url(#_clip1)">
        <g id="spotify-podcast-badge-blk-grn-330x80">
            <g id="Group-2">
                <g id="Path">
                    <path d="M159.356,-0L7.384,0C6.706,0 6.063,0.068 5.385,0.169C4.742,0.271 4.098,0.474 3.522,0.779C2.947,1.084 2.405,1.49 1.931,1.931C1.456,2.405 1.084,2.913 0.779,3.522C0.474,4.098 0.271,4.742 0.169,5.385C0.068,6.029 0,6.706 0,7.384L0,32.65C0,33.328 0.068,33.971 0.169,34.649C0.271,35.292 0.474,35.936 0.779,36.511C1.084,37.087 1.456,37.629 1.931,38.069C2.405,38.544 2.913,38.916 3.522,39.221C4.098,39.526 4.742,39.729 5.385,39.831C6.029,39.932 6.706,40 7.384,40L159.356,40C160.034,40 160.677,39.932 161.355,39.831C161.998,39.729 162.642,39.526 163.218,39.221C163.793,38.916 164.335,38.544 164.809,38.069C165.284,37.595 165.656,37.087 165.961,36.511C166.266,35.936 166.469,35.292 166.571,34.649C166.672,34.005 166.74,33.328 166.774,32.65L166.774,7.384C166.774,6.706 166.706,6.063 166.571,5.385C166.469,4.742 166.266,4.098 165.961,3.522C165.351,2.337 164.403,1.389 163.218,0.779C162.642,0.474 161.998,0.271 161.355,0.169C160.711,0.068 160.034,-0 159.356,-0Z" style="fill:#010202;"/>
                    <path d="M0,7.384C0,6.706 0.068,6.029 0.169,5.385C0.271,4.742 0.474,4.098 0.779,3.522C1.084,2.913 1.456,2.405 1.931,1.931C2.405,1.49 2.947,1.084 3.522,0.779C4.098,0.474 4.742,0.271 5.385,0.169C6.063,0.068 6.706,0 7.384,0L159.356,0C160.034,0 160.711,0.068 161.355,0.169C161.998,0.271 162.642,0.474 163.218,0.779C164.403,1.389 165.351,2.337 165.961,3.522C166.266,4.098 166.469,4.742 166.571,5.385C166.706,6.063 166.774,6.706 166.774,7.384L166.774,32.65C166.74,33.328 166.672,34.005 166.571,34.649C166.469,35.292 166.266,35.936 165.961,36.511C165.656,37.087 165.284,37.595 164.809,38.069C164.335,38.544 163.793,38.916 163.218,39.221C162.642,39.526 161.998,39.729 161.355,39.831C160.677,39.932 160.034,40 159.356,40L7.384,40C6.706,40 6.029,39.932 5.385,39.831C4.742,39.729 4.098,39.526 3.522,39.221C2.913,38.916 2.405,38.544 1.931,38.069C1.456,37.629 1.084,37.087 0.779,36.511C0.474,35.936 0.271,35.292 0.169,34.649C0.068,33.971 0,33.328 0,32.65L0,7.384ZM0.507,7.858L0.507,7.862L0.507,8.023L0.507,8.027L0.507,32.041L0.507,32.044L0.507,32.173L0.507,32.176L0.507,32.65C0.507,33.301 0.573,33.92 0.67,34.571C0.763,35.159 0.948,35.748 1.227,36.274C1.505,36.8 1.843,37.296 2.282,37.704L2.289,37.711C2.724,38.146 3.19,38.488 3.754,38.77L3.76,38.773C4.286,39.052 4.876,39.237 5.464,39.33C6.082,39.428 6.733,39.493 7.384,39.493L159.356,39.493C160.008,39.493 160.626,39.427 161.277,39.33C161.866,39.237 162.454,39.052 162.98,38.773C163.512,38.492 164.013,38.149 164.451,37.711C164.888,37.274 165.232,36.805 165.513,36.274C165.792,35.747 165.977,35.158 166.07,34.57C166.168,33.947 166.234,33.292 166.267,32.637L166.267,7.384C166.267,6.74 166.202,6.128 166.072,5.475L166.07,5.464C165.977,4.876 165.792,4.286 165.512,3.757L165.51,3.754C164.949,2.663 164.077,1.791 162.983,1.228L162.98,1.227C162.454,0.948 161.865,0.763 161.276,0.67C160.658,0.572 160.007,0.507 159.356,0.507L7.384,0.507C6.732,0.507 6.114,0.573 5.463,0.67C4.875,0.763 4.286,0.948 3.76,1.227C3.225,1.51 2.723,1.887 2.277,2.301C1.848,2.733 1.509,3.195 1.23,3.754L1.227,3.76C0.948,4.286 0.763,4.876 0.67,5.464C0.572,6.082 0.507,6.733 0.507,7.384L0.507,7.858Z" style="fill:#222225;"/>
                </g>
                <path id="Combined-Shape" d="M90.33,18.662C90.872,18.933 91.55,18.73 91.82,18.188C92.091,17.68 91.922,17.07 91.448,16.732C87.045,14.124 80.102,13.853 75.902,15.14C75.326,15.343 75.021,15.986 75.224,16.562C75.428,17.104 75.97,17.409 76.545,17.273C80.203,16.19 86.503,16.393 90.33,18.662ZM90.195,22.049C90.466,21.609 90.33,21.033 89.89,20.762C86.232,18.493 80.881,17.883 76.579,19.17C76.105,19.34 75.834,19.881 76.037,20.356C76.207,20.796 76.681,21.067 77.121,20.931C80.881,19.78 85.724,20.356 88.942,22.32C89.348,22.625 89.924,22.489 90.195,22.049ZM88.738,25.301C88.942,24.962 88.84,24.488 88.501,24.285C85.385,22.354 81.49,21.914 76.986,22.964C76.579,23.099 76.376,23.506 76.478,23.878C76.579,24.251 76.952,24.454 77.29,24.386C81.423,23.438 84.877,23.81 87.688,25.538C88.095,25.741 88.535,25.639 88.738,25.301ZM83.319,8.095C89.89,8.061 95.275,13.378 95.309,19.949C95.343,26.52 90.025,31.905 83.455,31.939C76.884,31.973 71.499,26.655 71.465,20.085L71.465,20.017C71.465,13.48 76.749,8.129 83.319,8.095ZM103.709,19.102C106.215,19.712 107.231,20.66 107.231,22.388C107.231,24.42 105.707,25.707 103.302,25.707C101.643,25.707 100.017,25.097 98.798,23.98C98.73,23.912 98.73,23.844 98.798,23.776L99.915,22.422C99.949,22.388 99.983,22.388 100.017,22.388C100.051,22.388 100.085,22.388 100.119,22.422C100.999,23.268 102.151,23.776 103.37,23.776C104.454,23.776 105.097,23.302 105.097,22.557C105.097,21.812 104.759,21.507 102.828,21.033C100.525,20.457 99.204,19.746 99.204,17.714C99.204,15.817 100.728,14.462 102.964,14.462C104.386,14.428 105.775,14.936 106.892,15.817C106.96,15.851 106.96,15.953 106.926,15.986L105.91,17.409C105.876,17.443 105.843,17.443 105.809,17.477L105.707,17.477C104.928,16.833 103.946,16.461 102.93,16.427C101.981,16.427 101.338,16.867 101.338,17.578C101.338,18.29 101.643,18.628 103.709,19.102ZM114.31,21.406C114.31,19.983 113.395,18.967 112.176,18.967C110.923,18.967 109.975,20.017 109.975,21.406C109.975,22.794 110.923,23.844 112.176,23.844C113.429,23.844 114.31,22.862 114.31,21.406ZM112.583,17.07C114.513,17.07 116.444,18.561 116.444,21.406C116.444,24.251 114.513,25.741 112.583,25.741C111.6,25.775 110.652,25.334 110.008,24.555L110.008,27.875C110.008,27.942 109.941,28.01 109.873,28.01L108.044,28.01C107.976,28.01 107.909,27.942 107.909,27.875L107.909,17.409C107.909,17.341 107.976,17.273 108.044,17.273L109.873,17.273C109.941,17.273 110.008,17.341 110.008,17.409L110.008,18.357C110.618,17.511 111.566,17.07 112.583,17.07ZM121.389,23.878C122.642,23.878 123.692,22.862 123.692,21.609L123.692,21.473C123.76,20.186 122.777,19.069 121.49,19.001L121.389,19.001C120.135,19.001 119.119,20.017 119.119,21.27L119.119,21.439C119.052,22.727 120.034,23.844 121.321,23.912C121.355,23.878 121.389,23.878 121.389,23.878ZM121.389,17.07C123.793,17.104 125.69,19.069 125.656,21.473C125.622,23.878 123.658,25.775 121.253,25.741C118.916,25.707 117.019,23.776 116.986,21.439C116.952,19.069 118.882,17.104 121.253,17.07L121.389,17.07ZM131.075,17.24C131.143,17.24 131.211,17.307 131.211,17.375L131.211,18.967C131.211,19.035 131.143,19.102 131.075,19.102L129.043,19.102L129.043,22.896C129.043,23.506 129.314,23.776 129.89,23.776C130.262,23.776 130.635,23.675 130.974,23.506C131.041,23.472 131.109,23.506 131.143,23.573L131.143,25.165C131.143,25.199 131.109,25.267 131.075,25.267C130.567,25.572 129.958,25.707 129.348,25.707C127.722,25.707 126.909,24.86 126.909,23.201L126.909,19.102L126.029,19.102C125.961,19.102 125.893,19.035 125.893,18.967L125.893,17.375C125.893,17.307 125.961,17.24 126.029,17.24L126.943,17.24L126.943,15.174C126.943,15.106 127.011,15.038 127.079,15.038L128.908,15.038C128.975,15.038 129.043,15.106 129.043,15.174L129.043,17.24L131.075,17.24ZM138.086,17.24L141.202,17.24C141.27,17.24 141.304,17.273 141.338,17.341L143.472,22.964L145.436,17.341C145.47,17.273 145.504,17.24 145.572,17.24L147.468,17.24C147.502,17.24 147.536,17.273 147.57,17.307C147.604,17.341 147.604,17.375 147.57,17.443L144.386,25.707C143.743,27.401 142.997,28.044 141.643,28.044C140.965,28.044 140.288,27.875 139.678,27.536C139.61,27.502 139.577,27.434 139.61,27.367L140.22,25.978C140.22,25.944 140.254,25.91 140.288,25.91L140.39,25.91C140.694,26.08 141.033,26.181 141.406,26.215C141.812,26.215 142.117,26.08 142.388,25.436L139.78,19.136L138.086,19.136L138.086,25.47C138.086,25.538 138.019,25.605 137.951,25.605L136.122,25.605C136.054,25.605 135.986,25.538 135.986,25.47L135.986,19.17L135.106,19.17C135.038,19.17 134.97,19.102 134.97,19.035L134.97,17.443C134.97,17.375 135.038,17.307 135.106,17.307L135.986,17.307L135.986,16.833C135.986,15.038 136.867,14.056 138.561,14.056C139.069,14.056 139.577,14.124 140.085,14.259C140.152,14.293 140.186,14.327 140.186,14.395L140.186,15.919C140.186,15.953 140.152,15.986 140.119,16.02C140.085,16.054 140.051,16.054 139.983,16.02C139.644,15.885 139.306,15.817 138.967,15.817C138.323,15.817 138.052,16.156 138.052,16.901L138.086,17.24ZM134.022,17.24C134.09,17.24 134.157,17.307 134.157,17.375L134.157,25.402C134.157,25.47 134.09,25.538 134.022,25.538L132.193,25.538C132.125,25.538 132.058,25.47 132.058,25.402L132.058,17.375C132.058,17.307 132.125,17.24 132.193,17.24L134.022,17.24ZM133.108,13.582C133.853,13.582 134.428,14.157 134.428,14.903C134.428,15.648 133.853,16.224 133.108,16.224C132.362,16.224 131.787,15.648 131.787,14.903C131.787,14.191 132.396,13.582 133.108,13.582ZM149.229,18.052L148.891,18.052L148.891,18.493L149.229,18.493C149.399,18.493 149.5,18.425 149.5,18.29C149.5,18.154 149.399,18.052 149.229,18.052ZM149.467,18.662L149.839,19.17L149.534,19.17L149.196,18.696L148.925,18.696L148.925,19.17L148.654,19.17L148.654,17.815L149.297,17.815C149.602,17.815 149.805,17.985 149.805,18.256C149.771,18.459 149.636,18.628 149.467,18.662ZM149.162,17.375C148.518,17.375 147.976,17.883 147.976,18.527C147.976,19.17 148.484,19.712 149.128,19.712C149.771,19.712 150.313,19.204 150.313,18.561L150.313,18.527C150.347,17.883 149.839,17.375 149.162,17.375C149.196,17.375 149.196,17.375 149.162,17.375ZM149.162,19.814C148.45,19.814 147.841,19.238 147.841,18.527C147.841,17.815 148.417,17.206 149.128,17.206C149.839,17.206 150.449,17.782 150.449,18.493C150.483,19.238 149.907,19.814 149.162,19.814C149.196,19.814 149.162,19.814 149.162,19.814Z" style="fill:#1ed760;"/>
                <path id="LISTEN-ON" d="M19.644,22.964L15.715,22.964L15.715,16.867L16.901,16.867L16.901,21.846L19.61,21.846L19.644,22.964ZM22.456,22.964L21.236,22.964L21.236,16.867L22.456,16.867L22.456,22.964ZM28.789,18.323L27.705,18.662C27.604,18.12 27.13,17.748 26.588,17.815C26.113,17.782 25.673,18.12 25.639,18.594C25.639,18.933 25.843,19.204 26.317,19.272L27.163,19.441C28.281,19.644 28.857,20.39 28.857,21.236C28.857,22.083 28.078,23.133 26.655,23.133C25.03,23.133 24.318,22.083 24.217,21.236L25.334,20.931C25.368,21.609 25.944,22.117 26.622,22.083L26.689,22.083C27.333,22.083 27.705,21.778 27.705,21.338C27.705,20.999 27.434,20.694 26.96,20.627L26.113,20.457C25.199,20.356 24.522,19.61 24.522,18.696C24.589,17.578 25.538,16.732 26.655,16.765C28.078,16.732 28.654,17.612 28.789,18.323ZM35.258,17.985L33.294,17.985L33.294,22.964L32.108,22.964L32.108,17.985L30.178,17.985L30.178,16.833L35.258,16.833L35.258,17.985ZM40.677,22.964L36.85,22.964L36.85,16.833L40.677,16.833L40.677,17.985L38.036,17.985L38.036,19.373L40.406,19.373L40.406,20.423L38.036,20.423L38.036,21.812L40.677,21.812L40.677,22.964ZM47.824,22.964L46.571,22.964L43.793,18.628L43.793,22.964L42.608,22.964L42.608,16.867L44.098,16.867L46.638,20.931L46.638,16.867L47.824,16.867L47.824,22.964ZM53.582,19.949C53.514,20.999 54.327,21.914 55.377,21.948C56.427,22.015 57.341,21.202 57.375,20.152L57.375,19.949C57.443,18.899 56.63,17.985 55.58,17.951C54.53,17.883 53.616,18.696 53.582,19.746L53.582,19.949ZM52.362,19.949C52.295,18.222 53.649,16.765 55.377,16.698C57.104,16.63 58.561,17.985 58.628,19.712L58.628,19.949C58.696,21.677 57.341,23.133 55.614,23.201C53.887,23.268 52.43,21.914 52.362,20.186L52.362,19.949ZM65.707,22.964L64.454,22.964L61.677,18.628L61.677,22.964L60.491,22.964L60.491,16.833L61.981,16.833L64.522,20.898L64.522,16.833L65.707,16.833L65.707,22.964Z" style="fill:#fff;"/>
            </g>
        </g>
    </g>
</svg>
